<mxfile host="app.diagrams.net" agent="Mozilla/5.0 (X11; Linux x86_64) AppleWebKit/537.36 (KHTML, like Gecko) Chrome/135.0.0.0 Safari/537.36" version="28.1.2">
  <diagram name="Page-1" id="17PtskW1dAVsFI4Nd52F">
    <mxGraphModel dx="1213" dy="776" grid="1" gridSize="10" guides="1" tooltips="1" connect="1" arrows="1" fold="1" page="1" pageScale="1" pageWidth="850" pageHeight="1100" math="0" shadow="0">
      <root>
        <mxCell id="0" />
        <mxCell id="1" parent="0" />
        <mxCell id="cALypRrA-Yns0GImuqxs-13" value="Index Document Pipeline" style="text;html=1;align=left;verticalAlign=middle;whiteSpace=wrap;rounded=0;" parent="1" vertex="1">
          <mxGeometry x="120" y="90" width="210" height="30" as="geometry" />
        </mxCell>
        <mxCell id="cALypRrA-Yns0GImuqxs-35" value="parse" style="shape=step;perimeter=stepPerimeter;whiteSpace=wrap;html=1;fixedSize=1;" parent="1" vertex="1">
          <mxGeometry x="159" y="120" width="100" height="40" as="geometry" />
        </mxCell>
        <mxCell id="cALypRrA-Yns0GImuqxs-36" value="redact" style="shape=step;perimeter=stepPerimeter;whiteSpace=wrap;html=1;fixedSize=1;" parent="1" vertex="1">
          <mxGeometry x="320" y="120" width="100" height="40" as="geometry" />
        </mxCell>
        <mxCell id="cALypRrA-Yns0GImuqxs-41" value="..." style="shape=step;perimeter=stepPerimeter;whiteSpace=wrap;html=1;fixedSize=1;" parent="1" vertex="1">
          <mxGeometry x="400" y="120" width="100" height="40" as="geometry" />
        </mxCell>
        <mxCell id="cALypRrA-Yns0GImuqxs-42" value="chunk" style="shape=step;perimeter=stepPerimeter;whiteSpace=wrap;html=1;fixedSize=1;" parent="1" vertex="1">
          <mxGeometry x="240" y="120" width="100" height="40" as="geometry" />
        </mxCell>
        <mxCell id="cALypRrA-Yns0GImuqxs-43" value="embed" style="shape=step;perimeter=stepPerimeter;whiteSpace=wrap;html=1;fixedSize=1;" parent="1" vertex="1">
          <mxGeometry x="479" y="120" width="100" height="40" as="geometry" />
        </mxCell>
        <mxCell id="cALypRrA-Yns0GImuqxs-44" value="index" style="shape=step;perimeter=stepPerimeter;whiteSpace=wrap;html=1;fixedSize=1;" parent="1" vertex="1">
          <mxGeometry x="559" y="120" width="100" height="40" as="geometry" />
        </mxCell>
      </root>
    </mxGraphModel>
  </diagram>
</mxfile>
